<svg id="Group_4" data-name="Group 4" xmlns="http://www.w3.org/2000/svg" width="399.999" height="86.085" viewBox="0 0 399.999 86.085">
  <path id="Path_2926" data-name="Path 2926" d="M0,86.085H48.736L24.369,44.046Zm5.294-3.05L24.369,50.128,43.444,83.035Z" fill="#6adcaa"/>
  <path id="Path_2927" data-name="Path 2927" d="M73.273,44.046,48.9,86.085H97.642Zm0,6.084L92.348,83.035H54.2Z" fill="#6adcaa"/>
  <path id="Path_2928" data-name="Path 2928" d="M48.818,0,24.451,42.039H73.195Zm0,6.084L67.893,38.989H29.745Z" fill="#6adcaa"/>
  <path id="Path_2929" data-name="Path 2929" d="M128.1,19.095a14.025,14.025,0,0,1,9.6,3.06,10.843,10.843,0,0,1,3.476,8.594,10.462,10.462,0,0,1-2.856,7.3,11.664,11.664,0,0,1-7.329,3.709h-.06L142.773,60.77H135.7L125.1,42.4h-6.308V60.77h-5.651V19.095Zm-1.65,18.365a10.9,10.9,0,0,0,6.568-1.619,5.961,5.961,0,0,0,2.149-5.09q0-6.709-8.717-6.709h-7.66V37.462h7.66Zm32.512-5.3a13.3,13.3,0,0,1,8.4,2.412,8.509,8.509,0,0,1,3.268,6.709v14.95q0,2.119.236,4.533h-4.718q-.175-1.883-.176-4.237h-.118a10.584,10.584,0,0,1-4.212,3.829,12.989,12.989,0,0,1-5.566,1.117,10.353,10.353,0,0,1-6.979-2.3,7.589,7.589,0,0,1-2.68-6.062,7.925,7.925,0,0,1,4-7.211,21.809,21.809,0,0,1,11.309-2.442h3.946v-1a5.59,5.59,0,0,0-1.856-4.443,7.123,7.123,0,0,0-4.86-1.619,10.432,10.432,0,0,0-3.916.678,17.017,17.017,0,0,0-3.971,2.492l-3.18-3.3a16.622,16.622,0,0,1,11.073-4.121Zm-7.245,20.544q0,4.533,6,4.533a7.766,7.766,0,0,0,5.742-2.149,8.59,8.59,0,0,0,2.2-6.21V47.349h-3a19.806,19.806,0,0,0-8.069,1.325,4.283,4.283,0,0,0-2.886,4.031Zm41.818-20.542a13.4,13.4,0,0,1,10.1,4.061,15.038,15.038,0,0,1,4.036,10.593,14.344,14.344,0,0,1-4,10.565,13.95,13.95,0,0,1-10.2,4.091,12.839,12.839,0,0,1-5.714-1.3,9.6,9.6,0,0,1-4-3.414h-.118v20.6h-5.3v-44.5h5.3v4h.118a10.656,10.656,0,0,1,4.182-3.474,12.828,12.828,0,0,1,5.6-1.235Zm-9.9,14.656a9.749,9.749,0,0,0,2.562,7.033,8.76,8.76,0,0,0,6.626,2.678,8.6,8.6,0,0,0,6.685-2.678,10.241,10.241,0,0,0,2.5-7.033,9.788,9.788,0,0,0-2.5-7,9.018,9.018,0,0,0-6.743-2.708,8.528,8.528,0,0,0-6.656,2.736,10.007,10.007,0,0,0-2.474,6.975Zm33.746-27.833a3.922,3.922,0,0,1,3.888,3.885,3.663,3.663,0,0,1-1.178,2.766,3.854,3.854,0,0,1-6.6-2.766,3.667,3.667,0,0,1,1.177-2.766,3.825,3.825,0,0,1,2.71-1.119Zm2.65,13.891v27.9h-5.3V32.869Zm36.4-16.6v44.49h-5.3v-4h-.118a10.158,10.158,0,0,1-4.152,3.474A12.892,12.892,0,0,1,241.3,61.48,13.643,13.643,0,0,1,231.081,57.3,14.814,14.814,0,0,1,227.1,46.824a14.463,14.463,0,0,1,3.918-10.477A14,14,0,0,1,241.3,32.168a12.945,12.945,0,0,1,5.536,1.235,10.121,10.121,0,0,1,4.182,3.474h.118V16.271ZM232.767,46.82a9.739,9.739,0,0,0,2.531,6.975,8.927,8.927,0,0,0,6.656,2.738,8.711,8.711,0,0,0,6.684-2.678,9.885,9.885,0,0,0,2.5-7.033,9.873,9.873,0,0,0-2.474-6.975,8.937,8.937,0,0,0-6.774-2.736,8.6,8.6,0,0,0-6.626,2.708,9.911,9.911,0,0,0-2.5,7Zm61.371-28.78q8.129,0,12.015,4.769l-4.6,4.179a7.627,7.627,0,0,0-3-2.648,9.639,9.639,0,0,0-4.475-1,9,9,0,0,0-5.862,1.8,5.689,5.689,0,0,0-2.2,4.621q0,4.709,6.244,6.6l5.241,1.707A15.274,15.274,0,0,1,304.245,42a9.879,9.879,0,0,1,2.326,6.945,11.77,11.77,0,0,1-4.094,9.33,15.261,15.261,0,0,1-10.4,3.562q-9.012,0-13.312-5.768l4.654-4a9.174,9.174,0,0,0,3.71,3.3,11.308,11.308,0,0,0,5.126,1.177,8.926,8.926,0,0,0,5.889-2,6.178,6.178,0,0,0,2.414-4.945,4.954,4.954,0,0,0-1.472-3.65,13.134,13.134,0,0,0-5.3-2.648l-3.71-1.235a16.114,16.114,0,0,1-7.834-4.8,11.977,11.977,0,0,1-2.238-7.5,10.595,10.595,0,0,1,3.946-8.3,15.017,15.017,0,0,1,10.2-3.414Zm30.626,14.126a13.3,13.3,0,0,1,8.4,2.412,8.513,8.513,0,0,1,3.269,6.709v14.95q0,2.119.234,4.533h-4.711q-.174-1.883-.176-4.237h-.118a10.571,10.571,0,0,1-4.218,3.825,12.983,12.983,0,0,1-5.566,1.117,10.358,10.358,0,0,1-6.98-2.3,7.592,7.592,0,0,1-2.679-6.062,7.927,7.927,0,0,1,4-7.211,21.813,21.813,0,0,1,11.31-2.442h3.946v-1a5.6,5.6,0,0,0-1.856-4.443,7.123,7.123,0,0,0-4.86-1.619,10.425,10.425,0,0,0-3.916.678,17.005,17.005,0,0,0-3.976,2.5l-3.179-3.3a16.618,16.618,0,0,1,11.071-4.121ZM317.52,52.708q0,4.533,6,4.533a7.761,7.761,0,0,0,5.742-2.149,8.591,8.591,0,0,0,2.2-6.21V47.351h-3a19.811,19.811,0,0,0-8.07,1.325,4.287,4.287,0,0,0-2.886,4.031Zm29.4-19.836,8.363,21.367,8.01-21.367h5.654l-10.964,27.9h-5.831l-11.368-27.9Zm39.462-.706a12.625,12.625,0,0,1,9.983,4.031,16.4,16.4,0,0,1,3.616,11.092v1.477H377.6a7.246,7.246,0,0,0,2.738,5.738,10.226,10.226,0,0,0,6.686,2.384,9.6,9.6,0,0,0,7.656-4.179l4,3.06a14.845,14.845,0,0,1-12.369,5.71,13.649,13.649,0,0,1-10.326-4.1,15.072,15.072,0,0,1-4.035-10.565,14.2,14.2,0,0,1,14.431-14.656Zm7.951,12.362a8.484,8.484,0,0,0-2.237-6.034,7.951,7.951,0,0,0-5.832-2.091,8.357,8.357,0,0,0-4.448,1.2,8.89,8.89,0,0,0-3.092,3.12,7.48,7.48,0,0,0-1.118,3.8Z" fill="#e4e4e4"/>
</svg>
